<svg xmlns="http://www.w3.org/2000/svg" height="14px"><path d="M10.684 12.948h1.261s.381-.041.576-.251c.179-.193.173-.555.173-.555s-.025-1.711.761-1.96c.774-.246 1.769 1.636 2.823 2.359.797.547 1.402.406 1.402.406l2.818.003s1.474-.112.775-1.271c-.057-.094-.407-.856-2.095-2.424-1.768-1.64-1.531-1.374.598-4.211 1.296-1.729 1.814-3.222155-.43-1.101-.356-1.101-.356l-3.18-.001s-.235-.023-.41.082c-.17.102-.28.366-.28.366s-.502 1.8-1.172 2.938c-1.413 2.399-1.978 2.526-2.209 2.377-.538-.348-.403-1.395-.403-2.139.295-.687-3.546-.345-.083-.599-.139-1.481-.147-1.132-.012-2.09.003-2.632.269-.361.177-.64.571-.47.594.21.028.685.128.937.471.324.441.313 1.434.313 1.434s.187 2.737-.4373.077c-.427.233-1.014-.243-2.274-2.419-.646-1.116-1.133-2.81-1.133-2.81s-.094-.23-.261-.354c-.203-.148-.487-.196-.487-.196l-3.016.002s-.453.012-.619.209c-.147.175-.011.537-.011.537s2.361 6.003 5.034 8.786c2.45 2.552 5.234 2.403 5.234 2.403z"/>
</svg>
