<svg xmlns="http://www.w3.org/2000/svg" height="14px" width="14px" viewBox="140 140 556.5 556.5"><path d="M149 204c18,-18 37,-37 55,-55 5,-5 13,-5 18,0 67,67 134,134 201,201 67,-67 135,-134 202,-201 5,-5 13,-5 18,0 18,18 36,37 55,55 5,5 5,13 0,18 -67,67 -134,134 -201,201 67,67 134,135 201,202 5,5 5,13 0,18 -19,18 -37,36 -55,55 -5,5 -13,5 -18,0 -67,-67 -135,-134 -202,-201 -67,67 -134,134 -201,201 -5,5 -13,5 -18,0 -18,-19 -37,-37 -55,-55 -5,-5 -5,-13 0,-18 67,-67 134,-135 201,-202 -67,-67 -134,-134 -201,-201 -5,-5 -5,-13 0,-18z"/>
</svg>
