<svg xmlns="http://www.w3.org/2000/svg" xmlns:xlink="http://www.w3.org/1999/xlink"><symbol id="icon-check" viewBox="140 140 556.5 556.5">
    <path d="M149 204c18,-18 37,-37 55,-55 5,-5 13,-5 18,0 67,67 134,134 201,201 67,-67 135,-134 202,-201 5,-5 13,-5 18,0 18,18 36,37 55,55 5,5 5,13 0,18 -67,67 -134,134 -201,201 67,67 134,135 201,202 5,5 5,13 0,18 -19,18 -37,36 -55,55 -5,5 -13,5 -18,0 -67,-67 -135,-134 -202,-201 -67,67 -134,134 -201,201 -5,5 -13,5 -18,0 -18,-19 -37,-37 -55,-55 -5,-5 -5,-13 0,-18 67,-67 134,-135 201,-202 -67,-67 -134,-134 -201,-201 -5,-5 -5,-13 0,-18z"/>
</symbol><symbol id="icon-facebook" viewBox="0 0 150 150">
    <path d="M89.584 155.139V84.378h23.742l3.562-27.585H89.584V39.184c0-7.984 2.208-13.425 13.67-13.425l14.595-.006V1.08C115.325.752 106.661 0 96.577 0 75.52 0 61.104 12.853 61.104 36.452v20.341H37.29v27.585h23.814v70.761h28.48z"/>
</symbol><symbol id="icon-instagram" viewBox="0 0 24 24">
    <path d="M12,2.2c3.2,0,3.6,0,4.9,0.1c3.3,0.1,4.8,1.7,4.9,4.9c0.1,1.3,0.1,1.6,0.1,4.8c0,3.2,0,3.6-0.1,4.8c-0.1,3.2-1.7,4.8-4.9,4.9c-1.3,0.1-1.6,0.1-4.9,0.1c-3.2,0-3.6,0-4.8-0.1c-3.3-0.1-4.8-1.7-4.9-4.9c-0.1-1.3-0.1-1.6-0.1-4.8c0-3.2,0-3.6,0.1-4.8c0.1-3.2,1.7-4.8,4.9-4.9C8.4,2.2,8.8,2.2,12,2.2z M12,0C8.7,0,8.3,0,7.1,0.1c-4.4,0.2-6.8,2.6-7,7C0,8.3,0,8.7,0,12s0,3.7,0.1,4.9c0.2,4.4,2.6,6.8,7,7C8.3,24,8.7,24,12,24s3.7,0,4.9-0.1c4.4-0.2,6.8-2.6,7-7C24,15.7,24,15.3,24,12s0-3.7-0.1-4.9c-0.2-4.4-2.6-6.8-7-7C15.7,0,15.3,0,12,0z M12,5.8c-3.4,0-6.2,2.8-6.2,6.2s2.8,6.2,6.2,6.2s6.2-2.8,6.2-6.2C18.2,8.6,15.4,5.8,12,5.8z M12,16c-2.2,0-4-1.8-4-4c0-2.2,1.8-4,4-4s4,1.8,4,4C16,14.2,14.2,16,12,16z M18.4,4.2c-0.8,0-1.4,0.6-1.4,1.4S17.6,7,18.4,7c0.8,0,1.4-0.6,1.4-1.4S19.2,4.2,18.4,4.2z"/>
</symbol><symbol id="icon-login" viewBox="0 0 448 432"><path d="M279.412,311.368c-11.055-1.759-11.307-32.157-11.307-32.157s32.484-32.158,39.564-75.401   c19.045,0,30.809-45.973,11.76-62.148C320.227,124.635,343.91,8,224,8c-119.911,0-96.225,116.635-95.432,133.662   c-19.047,16.175-7.285,62.148,11.761,62.148c7.079,43.243,39.564,75.401,39.564,75.401s-0.252,30.398-11.307,32.157   C132.976,317.034,0,375.686,0,440h224h224C448,375.686,315.023,317.034,279.412,311.368z"/>
</symbol><symbol id="icon-password" viewBox="18 0 68.69 90"><path d="M75.985,41.617l-2.467,0.001l-0.017-12.311C73.494,15.897,62.579,4.993,49.169,5c-13.41,0.007-24.314,10.921-24.307,24.332   l0.017,12.311l-0.873,0c-4.613,0.002-8.351,3.744-8.348,8.357l0.007,36.652c0.002,4.613,3.744,8.351,8.357,8.348l51.978-0.026   c4.613-0.002,8.351-3.744,8.348-8.357l-0.007-36.652C84.339,45.352,80.598,41.615,75.985,41.617z M52.288,69.75l0.005,10.381   l-3.784,0.002l-0.005-10.381c-2.08-0.771-3.571-2.755-3.572-5.103c-0.002-3.016,2.443-5.463,5.459-5.464   c3.016-0.002,5.463,2.443,5.464,5.459C55.856,66.991,54.367,68.977,52.288,69.75z M64.555,41.623l-30.713,0.016l-0.017-12.311   c-0.004-8.467,6.882-15.36,15.349-15.364s15.36,6.882,15.364,15.349L64.555,41.623z"/></symbol><symbol id="icon-sign-in" viewBox="0 0 385 385"><path d="m372.939 0h-168.424c-6.641 0-12.03 5.39-12.03 12.03s5.39 12.03 12.03 12.03h156.394v336.848h-156.394c-6.641 0-12.03 5.39-12.03 12.03s5.39 12.03 12.03 12.03h168.424c6.641 0 12.03-5.39 12.03-12.03v-360.908c.001-6.64-5.389-12.03-12.03-12.03z"/><path d="m197.213 268.276c-4.704 4.752-4.704 12.439 0 17.179 4.704 4.752 12.319 4.752 17.011 0l82.997-84.2c4.632-4.68 4.68-12.512 0-17.191l-83.009-84.2c-4.704-4.752-12.319-4.74-17.011 0-4.704 4.74-4.704 12.439 0 17.179l62.558 63.46h-247.729c-6.64 0-12.03 5.437-12.03 12.15s5.39 12.151 12.03 12.151h247.74z"/></symbol><symbol id="icon-vkontakte">
    <path d="M10.684 12.948h1.261s.381-.041.576-.251c.179-.193.173-.555.173-.555s-.025-1.711.761-1.96c.774-.246 1.769 1.636 2.823 2.359.797.547 1.402.406 1.402.406l2.818.003s1.474-.112.775-1.271c-.057-.094-.407-.856-2.095-2.424-1.768-1.64-1.531-1.374.598-4.211 1.296-1.729 1.814-3.222 1.653-3.673-.155-.43-1.101-.356-1.101-.356l-3.18-.001s-.235-.023-.41.082c-.17.102-.28.366-.28.366s-.502 1.8-1.172 2.938c-1.413 2.399-1.978 2.526-2.209 2.377-.538-.348-.403-1.395-.403-2.139 0-2.325.353-3.295-.687-3.546-.345-.083-.599-.139-1.481-.147-1.132-.012-2.09.003-2.632.269-.361.177-.64.571-.47.594.21.028.685.128.937.471.324.441.313 1.434.313 1.434s.187 2.737-.437 3.077c-.427.233-1.014-.243-2.274-2.419-.646-1.116-1.133-2.81-1.133-2.81s-.094-.23-.261-.354c-.203-.148-.487-.196-.487-.196l-3.016.002s-.453.012-.619.209c-.147.175-.011.537-.011.537s2.361 6.003 5.034 8.786c2.45 2.552 5.234 2.403 5.234 2.403z"/></symbol></svg>