<svg xmlns="http://www.w3.org/2000/svg" width="16" height="19" viewBox="18 0 68.69 90"><path d="M75.985 41.617l-2.467.001-.017-12.311C73.494 15.897 62.579 4.993 49.169 5c-13.41.007-24.314 10.921-24.307 24.332l.017 12.311h-.873A8.352 8.352 0 0015.658 50l.007 36.652A8.352 8.352 0 0024.022 95L76 94.974a8.352 8.352 0 008.348-8.357l-.007-36.652a8.352 8.352 0 00-8.356-8.348zM52.288 69.75l.005 10.381-3.784.002-.005-10.381c-2.08-.771-3.571-2.755-3.572-5.103a5.461 5.461 0 1110.923-.005c.001 2.347-1.488 4.333-3.567 5.106zm12.267-28.127l-30.713.016-.017-12.311c-.004-8.467 6.882-15.36 15.349-15.364s15.36 6.882 15.364 15.349l.017 12.31z"/></svg>